<svg width="214" height="18" viewBox="0 0 214 18" fill="none" xmlns="http://www.w3.org/2000/svg">
<path d="M2.12891 0.9375H5.10547L9.48828 13.4648L13.8711 0.9375H16.8477L10.6836 18H8.29297L2.12891 0.9375ZM0.523438 0.9375H3.48828L4.02734 13.1484V18H0.523438V0.9375ZM15.4883 0.9375H18.4648V18H14.9492V13.1484L15.4883 0.9375ZM30.7625 0.9375L34.325 8.71875L37.8875 0.9375H41.7195L36.1063 11.7891V18H32.5438V11.7891L26.9188 0.9375H30.7625ZM58.318 0.9375V18H54.8141V0.9375H58.318ZM63.568 0.9375V3.69141H49.6461V0.9375H63.568ZM76.5102 0.9375V18H73.0062V0.9375H76.5102ZM100.89 0.9375V18H97.3742L90.5188 6.5625V18H87.0031V0.9375H90.5188L97.3859 12.3867V0.9375H100.89ZM122.598 15.2578V18H113.516V15.2578H122.598ZM114.664 0.9375V18H111.148V0.9375H114.664ZM121.414 7.88672V10.5586H113.516V7.88672H121.414ZM122.586 0.9375V3.69141H113.516V0.9375H122.586ZM131.848 0.9375H138.212C139.516 0.9375 140.637 1.13281 141.575 1.52344C142.52 1.91406 143.247 2.49219 143.755 3.25781C144.262 4.02344 144.516 4.96484 144.516 6.08203C144.516 6.99609 144.36 7.78125 144.048 8.4375C143.743 9.08594 143.309 9.62891 142.747 10.0664C142.192 10.4961 141.54 10.8398 140.79 11.0977L139.677 11.6836H134.145L134.122 8.94141H138.235C138.852 8.94141 139.364 8.83203 139.77 8.61328C140.177 8.39453 140.481 8.08984 140.684 7.69922C140.895 7.30859 141.001 6.85547 141.001 6.33984C141.001 5.79297 140.899 5.32031 140.696 4.92188C140.493 4.52344 140.184 4.21875 139.77 4.00781C139.356 3.79688 138.837 3.69141 138.212 3.69141H135.364V18H131.848V0.9375ZM141.387 18L137.497 10.3945L141.212 10.3711L145.149 17.8359V18H141.387ZM161.361 3.85547L156.72 18H152.982L159.322 0.9375H161.701L161.361 3.85547ZM165.216 18L160.564 3.85547L160.189 0.9375H162.591L168.966 18H165.216ZM165.005 11.6484V14.4023H155.994V11.6484H165.005ZM177.748 0.9375H184.112C185.416 0.9375 186.538 1.13281 187.475 1.52344C188.42 1.91406 189.147 2.49219 189.655 3.25781C190.163 4.02344 190.416 4.96484 190.416 6.08203C190.416 6.99609 190.26 7.78125 189.948 8.4375C189.643 9.08594 189.209 9.62891 188.647 10.0664C188.092 10.4961 187.44 10.8398 186.69 11.0977L185.577 11.6836H180.045L180.022 8.94141H184.135C184.752 8.94141 185.264 8.83203 185.67 8.61328C186.077 8.39453 186.381 8.08984 186.584 7.69922C186.795 7.30859 186.901 6.85547 186.901 6.33984C186.901 5.79297 186.799 5.32031 186.596 4.92188C186.393 4.52344 186.084 4.21875 185.67 4.00781C185.256 3.79688 184.737 3.69141 184.112 3.69141H181.264V18H177.748V0.9375ZM187.288 18L183.397 10.3945L187.112 10.3711L191.049 17.8359V18H187.288ZM202.105 0.9375L205.667 8.71875L209.23 0.9375H213.062L207.448 11.7891V18H203.886V11.7891L198.261 0.9375H202.105Z" fill="white"/>
</svg>
