<svg width="31" height="31" viewBox="0 0 31 31" fill="none" xmlns="http://www.w3.org/2000/svg">
<path d="M29.7083 3.87481C28.4714 4.7473 27.1019 5.41461 25.6525 5.85106C24.8746 4.95659 23.8407 4.32262 22.6907 4.03488C21.5408 3.74714 20.3302 3.81952 19.2227 4.24222C18.1152 4.66493 17.1642 5.41757 16.4984 6.39836C15.8326 7.37914 15.4841 8.54074 15.5 9.72606V11.0177C13.2301 11.0766 10.9808 10.5731 8.95254 9.55226C6.92428 8.53137 5.17998 7.02471 3.87499 5.16647C3.87499 5.16647 -1.29168 16.7915 10.3333 21.9581C7.67317 23.7638 4.50423 24.6693 1.29166 24.5415C12.9167 30.9998 27.125 24.5415 27.125 9.68731C27.1238 9.32752 27.0892 8.96861 27.0217 8.61522C28.3399 7.31515 29.2702 5.67373 29.7083 3.87481V3.87481Z" stroke="white" stroke-width="2" stroke-linecap="round" stroke-linejoin="round"/>
</svg>
