<svg width="31" height="31" viewBox="0 0 31 31" fill="none" xmlns="http://www.w3.org/2000/svg">
<path d="M20.6667 28.4164V23.4177C20.7151 22.8018 20.6319 22.1826 20.4226 21.6013C20.2132 21.0201 19.8825 20.49 19.4525 20.0464C23.5083 19.5944 27.7708 18.0573 27.7708 11.0048C27.7705 9.20139 27.0768 7.46716 25.8333 6.16103C26.4222 4.58326 26.3805 2.83931 25.7171 1.29144C25.7171 1.29144 24.1929 0.83936 20.6667 3.20311C17.7062 2.40076 14.5855 2.40076 11.625 3.20311C8.09876 0.83936 6.57459 1.29144 6.57459 1.29144C5.91116 2.83931 5.86953 4.58326 6.45834 6.16103C5.20559 7.47685 4.51119 9.22675 4.52084 11.0435C4.52084 18.0444 8.78334 19.5814 12.8392 20.0852C12.4142 20.5243 12.0865 21.048 11.8773 21.6222C11.6681 22.1963 11.5821 22.8081 11.625 23.4177V28.4164M11.625 24.5414C5.16668 26.4789 5.16668 21.3123 2.58334 20.6664L11.625 24.5414Z" stroke="white" stroke-width="2" stroke-linecap="round" stroke-linejoin="round"/>
</svg>
