<svg width="31" height="31" viewBox="0 0 31 31" fill="none" xmlns="http://www.w3.org/2000/svg">
<path d="M21.9583 2.5835H9.04168C5.47484 2.5835 2.58334 5.47499 2.58334 9.04183V21.9585C2.58334 25.5253 5.47484 28.4168 9.04168 28.4168H21.9583C25.5252 28.4168 28.4167 25.5253 28.4167 21.9585V9.04183C28.4167 5.47499 25.5252 2.5835 21.9583 2.5835Z" stroke="white" stroke-width="2" stroke-linecap="round" stroke-linejoin="round"/>
<path d="M20.6667 14.6862C20.8261 15.7611 20.6425 16.859 20.1419 17.8236C19.6414 18.7882 18.8495 19.5705 17.8788 20.0591C16.9081 20.5476 15.808 20.7177 14.7351 20.5451C13.6621 20.3724 12.6709 19.8658 11.9025 19.0974C11.1341 18.329 10.6275 17.3378 10.4548 16.2648C10.2822 15.1919 10.4523 14.0918 10.9408 13.1211C11.4294 12.1504 12.2117 11.3585 13.1763 10.858C14.1409 10.3574 15.2388 10.1738 16.3138 10.3332C17.4103 10.4958 18.4254 11.0068 19.2093 11.7906C19.9931 12.5745 20.5041 13.5896 20.6667 14.6862Z" stroke="white" stroke-width="2" stroke-linecap="round" stroke-linejoin="round"/>
<path d="M22.6042 8.396H22.6175" stroke="white" stroke-width="2" stroke-linecap="round" stroke-linejoin="round"/>
</svg>
